<svg width="27" height="24" viewBox="0 0 27 24" fill="none" xmlns="http://www.w3.org/2000/svg">
<g id="Group">
<g id="Group_2">
<path id="Vector" d="M26.1448 17.3724C25.9724 16.731 25.4621 16.2483 24.8138 16.1034V5.91724H25.2552C25.5241 5.91724 25.7379 5.70345 25.7379 5.43448V1.11724C25.7448 0.503448 25.2414 0 24.6276 0H7.96552C7.35172 0 6.84828 0.503448 6.84828 1.11724V5.43448C6.84828 5.70345 7.06207 5.91724 7.33103 5.91724H7.77241V14.8H6.96552C5.92414 14.8 4.90345 15.0897 4.02069 15.6345V13.5724C4.02069 13.2966 3.8 13.0759 3.52414 13.0759H0.496552C0.22069 13.0759 0 13.2966 0 13.5724V23.5035C0 23.7793 0.22069 24 0.496552 24H3.51724C3.7931 24 4.01379 23.7793 4.01379 23.5035V21.4414C4.90345 21.9862 5.91724 22.2759 6.97241 22.2759H14.0621C14.5586 22.2759 15.0552 22.2069 15.531 22.0828L24.8759 19.5793C25.8345 19.3103 26.4 18.3241 26.1448 17.3724ZM14.0621 21.269H6.96552C5.95862 21.269 4.96552 20.9379 4.16552 20.331L4.02069 20.2207V16.8345L4.16552 16.7241C4.96552 16.1172 5.95862 15.7862 6.96552 15.7862H10.8483C11.1034 15.7862 11.3586 15.8207 11.6069 15.8828L17.4207 17.4414C17.7379 17.531 17.9724 17.8 18.0069 18.1379C18.0069 18.1517 18.0138 18.1655 18.0207 18.1793C18.0207 18.1931 18.0138 18.2069 18.0138 18.2276C18.0138 18.2897 18.0069 18.3586 17.9862 18.4207C17.8897 18.7655 17.5793 19.0069 17.2138 19.0069C17.1448 19.0069 17.0759 19 17.0069 18.9793L13.3379 17.9931C13.1655 17.9379 12.9793 17.9862 12.8483 18.1172C12.7172 18.2414 12.669 18.4276 12.7172 18.6069C12.7655 18.7793 12.9034 18.9172 13.0759 18.9586L16.7448 19.9448C16.8966 19.9862 17.0552 20.0069 17.2138 20.0069C18.0138 20.0069 18.7241 19.4621 18.9379 18.6897C18.9586 18.6138 18.9724 18.5379 18.9862 18.4621L24.2069 17.0621C24.2414 17.0552 24.2828 17.0414 24.3172 17.0345C24.7103 16.9862 25.0897 17.2414 25.1931 17.6207C25.2138 17.6897 25.2207 17.7586 25.2207 17.8276C25.2207 18.1862 24.9793 18.5034 24.6345 18.6L15.2897 21.1034C14.8828 21.2138 14.4759 21.269 14.0621 21.269ZM23.8483 16.1448L23.6966 16.1724L18.8345 17.4759C18.6138 16.9862 18.1931 16.6276 17.6759 16.4897L11.8621 14.931C11.531 14.8414 11.1862 14.8 10.8483 14.8H8.75172V5.91724H23.8552V16.1448H23.8483ZM7.96552 0.965517H24.6276C24.7103 0.965517 24.7793 1.03448 24.7793 1.11724V4.95172H7.82069V1.11724C7.82069 1.03448 7.88276 0.965517 7.96552 0.965517ZM3.02069 14.0621V23H0.993104V14.0621H3.02069Z" fill="#010101"/>
<path id="Vector_2" d="M11.973 12.7101H20.6282C20.8971 12.7101 21.1109 12.4963 21.1109 12.2273V7.90317C21.1109 7.6342 20.8971 7.42041 20.6282 7.42041H11.973C11.704 7.42041 11.4902 7.6342 11.4902 7.90317V12.2273C11.4902 12.4963 11.704 12.7101 11.973 12.7101ZM12.4558 11.7445V8.38593H20.1454V11.7445H12.4558Z" fill="#010101"/>
<path id="Vector_3" d="M13.89 4.44806H18.7107C19.5314 4.44806 20.2004 3.77909 20.2004 2.95841C20.2004 2.13772 19.5314 1.46875 18.7107 1.46875H13.89C13.0694 1.46875 12.4004 2.13772 12.4004 2.95841C12.4004 3.77909 13.0694 4.44806 13.89 4.44806ZM13.89 2.30323H18.7107C19.0694 2.30323 19.3659 2.59289 19.3659 2.95841C19.3659 3.31703 19.0763 3.61358 18.7107 3.61358H13.89C13.5314 3.61358 13.2418 3.32392 13.2418 2.95841C13.2349 2.59978 13.5314 2.30323 13.89 2.30323Z" fill="#010101"/>
</g>
<path id="Vector_4" d="M13.8896 2.30322H18.7103C19.0689 2.30322 19.3655 2.59288 19.3655 2.9584C19.3655 3.31702 19.0758 3.61357 18.7103 3.61357H13.8896C13.531 3.61357 13.2413 3.32391 13.2413 2.9584C13.2344 2.59977 13.531 2.30322 13.8896 2.30322Z" fill="#F4C127"/>
<path id="Vector_5" d="M20.1447 8.38672H12.4551V11.7453H20.1447V8.38672Z" fill="#F4C127"/>
</g>
</svg>
