<svg height="28" id="Layer_1" data-name="Layer 1"
     xmlns="http://www.w3.org/2000/svg"
     viewBox="0 0 1158.4 189.7">
  <path fill="#fff"
        d="M190.53 122.51s18.65 38.17 57.25 38.17l3.28 32s-45.48-2.93-70.58-50.4c-4.49 8.55-8.91 16.48-12.36 21.66-11.5 17.25-55.84 54.2-103.47 0 1.13.39 79.63 27.68 103.47-38.61C194.4 52.27 217.39 40 217.39 40s35.31-24.64 69.81-5.75c0 0-50.07-4.49-68.23 30.74-2.18 4.22-4.48 8.38-6.95 12.44a109.27 109.27 0 00-9.11 18.14c-.86 2.38-1.81 4.73-2.83 7 15.36-8.09 43-19.65 69.87-15.8l21.35 19.71S253.17 95 190.53 122.51z"
        transform="translate(-17.83 -3)"/>
  <path fill="#008800"
        d="M205.15 19s-13.46 7.85-28.26 33.9c-1.37-2.34-3.46-5.72-6.26-9.64-6.87-9.62-18-22.48-33-31.12A81.64 81.64 0 00100 3c-1 0-2.11 0-3.17.07a82.11 82.11 0 00-37 153.67h.09A54.14 54.14 0 0077.9 163c25 4 68.45 3.45 85.13-43 26.28-73.09 49.28-85.41 49.28-85.41a82.55 82.55 0 0125.38-10.86 59.36 59.36 0 0117.73-2h.26A70.12 70.12 0 01266.51 23c17.26 3.37 20.28 6.67 20.28 6.67C251.47-14.66 205.15 19 205.15 19zM166.6 75.33q-2.5 5.46-5.09 11.66v.05q-4 9.58-8.15 21.07c-5 13.93-12.42 23.72-21 30.5a58 58 0 01-7.16 4.83c-9.74 6.45-17.94 7.26-19.84 7.36h-.41a91.54 91.54 0 01-14.1-1.42C81 147.7 67.89 144 57.66 135.79a63.88 63.88 0 01-16.17-34.16 65 65 0 01-.64-9.1 64.06 64.06 0 01121.63-28.07 63.16 63.16 0 013.88 10c.09.28.16.56.24.85z"
        transform="translate(-17.83 -3)"/>
  <path fill="#fff"
        d="M410.11 40.92a127.59 127.59 0 0121.17-1.65c10.91 0 18.9 2.53 24 7.1 4.69 4.05 7.48 10.27 7.48 17.87s-2.29 13.82-6.6 18.26c-5.83 6.21-15.34 9.38-26.11 9.38a37.69 37.69 0 01-8.88-.76v34.23h-11zm11 41.2a37.17 37.17 0 009.13.89c13.31 0 21.43-6.47 21.43-18.26 0-11.28-8-16.73-20.16-16.73a46.86 46.86 0 00-10.4.88zM476.67 41a115.05 115.05 0 0121.17-1.77c11.79 0 19.4 2.15 24.73 7 4.31 3.8 6.72 9.64 6.72 16.23 0 11.28-7.1 18.76-16.11 21.81v.38c6.6 2.28 10.53 8.36 12.56 17.24 2.78 11.92 4.81 20.16 6.59 23.45h-11.41c-1.4-2.4-3.3-9.76-5.71-20.41-2.53-11.79-7.1-16.23-17.11-16.61h-10.4v37h-11zm11.03 39H499c11.79 0 19.27-6.47 19.27-16.23 0-11-8-15.85-19.65-16a45.1 45.1 0 00-10.9 1zM555 39.9v85.45h-11V39.9zM633.12 122.57c-4.06 2-12.18 4.05-22.57 4.05-24.09 0-42.22-15.21-42.22-43.23 0-26.75 18.13-44.88 44.63-44.88 10.65 0 17.37 2.28 20.28 3.8l-2.66 9a40.13 40.13 0 00-17.24-3.55C593.31 47.76 580 60.57 580 83c0 20.92 12 34.36 32.84 34.36 6.72 0 13.57-1.4 18-3.55zM690.29 85.29h-33.22v30.81h37v9.25H646V39.9h46.15v9.26h-35.08v27h33.22z"
        transform="translate(-17.83 -3)"/>
  <path fill="#fff"
        d="M851.93 39.9h11v41.21h.38c2.29-3.3 4.57-6.34 6.72-9.13l26.15-32.08h13.69l-30.93 36.26 33.34 49.19h-13.06l-28.14-42-8.08 9.42v32.58h-11zM961.72 85.29h-33.21v30.81h37v9.25h-48V39.9h46.15v9.26h-35.15v27h33.21zM976.68 125.35V39.9h12.05l27.38 43.23a242.41 242.41 0 0115.34 27.77l.26-.13c-1-11.41-1.27-21.8-1.27-35.12V39.9h10.39v85.45h-11.15L1002.54 82a273.23 273.23 0 01-16-28.52l-.38.12c.63 10.78.89 21 .89 35.25v36.51zM1075.06 125.35V89.09l-27-49.19h12.55l12 23.58c3.3 6.47 5.83 11.67 8.5 17.63h.25c2.41-5.58 5.32-11.16 8.62-17.63l12.3-23.58h12.55L1086.22 89v36.38zM1125 98.48l-8.88 26.87h-11.41l29-85.45h13.31l29.16 85.45h-11.79l-9.13-26.87zm28-8.63l-8.37-24.59c-1.9-5.58-3.17-10.65-4.44-15.6h-.19c-1.27 5.07-2.66 10.27-4.31 15.47l-8.37 24.72z"
        transform="translate(-17.83 -3)"/>
  <path fill="#fff"
        d="M760.16 106.21q-2 2-3.86 3.83t-3.67 3.4q-1.86 1.61-3.74 3.15t-4 3.09a41 41 0 01-8.4 4.78 20.76 20.76 0 01-7.84 1.7 17.91 17.91 0 01-7.51-1.45 16.46 16.46 0 01-5.43-3.95 21.25 21.25 0 01-3.68-5.75 39.55 39.55 0 01-2.25-6.85 50.2 50.2 0 01-1.14-7.32q-.31-3.7-.31-7c0-.86.06-2.11.18-3.73s.3-3.34.53-5.13.47-3.53.74-5.22a37.49 37.49 0 01.83-4.07 10.14 10.14 0 011.58-3.06 13.91 13.91 0 012.68-2.69 11.12 11.12 0 017.17-2.59q4 0 4 4.82a24.78 24.78 0 01-.37 4c-.25 1.52-.47 3.07-.68 4.63-.25 1.85-.47 3.51-.68 5s-.38 2.78-.52 3.95-.26 2.24-.34 3.18-.13 1.86-.13 2.72a47.06 47.06 0 00.34 5.25 37.82 37.82 0 001 5.4 17.65 17.65 0 001.67 4.2c.66 1.13 1.42 1.7 2.29 1.7a23.06 23.06 0 004.32-.46 17 17 0 005.12-2q2.6-1.48 5.41-3.46a71.31 71.31 0 005.77-4.57c1.85-1.6 3.67-3.21 5.47-4.81s3.59-3.36 5.4-5.25c.82-.87 1.57-1.65 2.25-2.35s1.31-1.37 1.89-2 1.14-1.25 1.69-1.85l1.76-1.88c.17-.21.38-.45.62-.71s.52-.54.8-.81a5.54 5.54 0 01.93-.68 2.05 2.05 0 011-.27 3.83 3.83 0 011.45.31 2.23 2.23 0 011.2 1.23 4.51 4.51 0 01.5 1.7c0 .55.06 1 .06 1.39a5.54 5.54 0 01-.68 2c-.45.92-1 2-1.79 3.24s-1.61 2.55-2.59 4-2 2.8-3 4.2-2.07 2.73-3.12 4-2.02 2.14-2.92 3.04zm-24-71.63a12 12 0 01-.62 3.86 12.78 12.78 0 01-1.79 3.43q-2.36 3.27-7.23 3.27a21.86 21.86 0 01-3.45-.28 14.42 14.42 0 01-3.27-.86 7.69 7.69 0 01-2.37-1.45 2.65 2.65 0 01-.93-2 9.35 9.35 0 011-4 18.49 18.49 0 012.56-4 15.23 15.23 0 013.43-3 6.67 6.67 0 013.61-1.21 24.09 24.09 0 013.83.28 8.55 8.55 0 012.84 1 4.28 4.28 0 011.76 1.91 7.25 7.25 0 01.61 3.05z"
        transform="translate(-17.83 -3)"/>
  <path fill="#fff"
        d="M848.63 102.82a1 1 0 01.89.65 5 5 0 01.34 2.19 10.82 10.82 0 01-1.57 5.22 18.6 18.6 0 01-4.63 5.28 26.24 26.24 0 01-7.57 4.1 30.3 30.3 0 01-10.37 1.64 26.36 26.36 0 01-9.88-1.76 18.58 18.58 0 01-7.47-5.47 26.08 26.08 0 01-4.79-9.48 52.35 52.35 0 01-1.82-13.86 54.78 54.78 0 00-5.68 5.67q-2.91 3.3-5.5 6.7t-4.66 6.3l-3.18 4.57q-1.61 2.42-2.63 4a16.42 16.42 0 01-2 2.65 5.79 5.79 0 01-2.13 1.48 8.71 8.71 0 01-3.15.47 9.37 9.37 0 01-5.84-2 6.3 6.3 0 01-1.66-1.94 4.49 4.49 0 01-.59-2.2c0-.7 0-1.52.12-2.47s.2-1.91.34-2.9.29-2 .43-2.93.28-1.84.41-2.63c.16-1 .34-2.12.52-3.27s.39-2.43.62-3.83.45-3 .68-4.66.44-3.61.65-5.71q.36-3.7.71-7.2t.83-7.19a33.69 33.69 0 01.8-4 9.75 9.75 0 011.42-3.12 6.38 6.38 0 012.41-2 8.62 8.62 0 013.83-.74 9.24 9.24 0 013.34.49 3.9 3.9 0 012.62 3.24 16.15 16.15 0 01.15 2.2v1.11c0 .33 0 .64-.09.92a23.45 23.45 0 01-.31 2.41c-.16 1-.42 2.28-.77 4s-.83 4-1.45 6.82c-.37 1.65-.76 3.33-1.17 5.06s-.8 3.38-1.15 4.94-.65 3-.89 4.23-.41 2.24-.5 2.94c1-1.15 2.14-2.59 3.46-4.29s2.63-3.45 4-5.22 2.6-3.46 3.83-5.07 2.29-2.9 3.15-3.89q2.1-2.34 4.11-4.44a30.81 30.81 0 014.16-3.6 19 19 0 014.57-2.47 15.25 15.25 0 015.31-.89 7.66 7.66 0 012.65.37 3.31 3.31 0 011.51 1 3.19 3.19 0 01.68 1.48 9 9 0 01.16 1.76v1c0 .24-.05.83-.16 1.76s-.22 1.92-.37 3-.26 2.08-.37 3-.15 1.56-.15 1.85a50.84 50.84 0 00.74 8.89 25.38 25.38 0 002.32 7.2 13.17 13.17 0 004 4.81 9.9 9.9 0 005.93 1.76 27.23 27.23 0 004.2-.28 17.11 17.11 0 003.49-.92 22.12 22.12 0 003.49-1.73c1.19-.72 2.57-1.6 4.13-2.62a17.37 17.37 0 011.79-1.24 8.9 8.9 0 011.76-.83 5.72 5.72 0 011.95-.31z"
        transform="translate(-17.83 -3)"/>
  <path fill="#fff"
        d="M457.76 178v-9.3l-7.7-12.86h6.12l2.5 5.35c.76 1.64 1.27 2.67 1.89 4.08h.06c.57-1.31 1.16-2.5 1.88-4.06l2.54-5.37h6l-8.05 12.7V178zM499.13 166.75c0 6.9-4.86 11.63-12.09 11.63s-11.58-4.86-11.58-11.25c0-6.81 4.88-11.68 11.94-11.68 7.28 0 11.73 4.82 11.73 11.3zM481 167c0 4.11 2.42 7.33 6.29 7.33s6.26-3.17 6.26-7.42c0-4-2.32-7.39-6.26-7.39S481 162.83 481 167zM512.53 155.84V168c0 4 1.65 6.29 4.65 6.29s4.73-2.17 4.73-6.29v-12.16h5.23v12c0 7.2-3.88 10.51-10.19 10.51-5.91 0-9.65-3.07-9.65-10.61v-11.9zM536.33 156.14a49.19 49.19 0 017.31-.5c3.59 0 6 .56 7.59 1.79a5.62 5.62 0 012.14 4.66 5.84 5.84 0 01-4.07 5.41v.12c1.55.62 2.44 2.12 3.05 4 .77 2.53 1.46 5.46 1.91 6.33h-5.34a26.92 26.92 0 01-1.66-5.11c-.7-2.77-1.7-3.5-4-3.54h-1.77v8.7h-5.19zm5.19 9.47h2.35c2.69 0 4.32-1.18 4.32-3.1 0-2.08-1.61-3-4-3a13.28 13.28 0 00-2.66.18zM576.91 160.12h-6.66v-4.28h18.67v4.28h-6.77V178h-5.24zM596.35 156.14a48.93 48.93 0 017.3-.5c3.6 0 6 .56 7.59 1.79a5.6 5.6 0 012.15 4.66 5.84 5.84 0 01-4.08 5.41v.12c1.55.62 2.45 2.12 3.05 4 .77 2.53 1.46 5.46 1.91 6.33h-5.33a26.16 26.16 0 01-1.66-5.11c-.7-2.77-1.7-3.5-4-3.54h-1.77v8.7h-5.18zm5.18 9.47h2.36c2.69 0 4.31-1.18 4.31-3.1 0-2.08-1.6-3-4-3a13.35 13.35 0 00-2.66.18zM626.85 155.84V168c0 4 1.64 6.29 4.65 6.29s4.72-2.17 4.72-6.29v-12.16h5.24v12c0 7.2-3.89 10.51-10.19 10.51-5.91 0-9.66-3.07-9.66-10.61v-11.9zM651 172.56a13.72 13.72 0 006.19 1.57c2.39 0 3.68-.92 3.68-2.38 0-1.29-1.08-2.08-4-2.93-3.91-1.13-6.75-3-6.75-6.68 0-3.85 3.44-6.69 8.83-6.69a15 15 0 016.38 1.22l-1.24 4.12a12.55 12.55 0 00-5.23-1.15c-2.29 0-3.38 1-3.38 2.09 0 1.43 1.41 2 4.45 3 4.25 1.36 6.31 3.33 6.31 6.73 0 3.57-2.78 6.92-9.47 6.92a15.85 15.85 0 01-6.92-1.54zM679.57 160.12h-6.67v-4.28h18.67v4.28h-6.77V178h-5.23zM713.42 168.74h-9.18v5h10.25V178H699v-22.16h15v4.22h-9.74v4.46h9.18zM722.72 156.14a52.2 52.2 0 017.54-.5c4.67 0 7.69.82 10 2.52a9.39 9.39 0 014 8.13 11 11 0 01-3.85 8.83c-2.61 2.11-6.64 3.11-11.36 3.11a47.09 47.09 0 01-6.4-.35zm5.24 18a15.74 15.74 0 002.07.09c5.35.05 8.72-2.61 8.72-7.63 0-4.62-3.18-6.93-8-6.93a14.18 14.18 0 00-2.74.22zM764.66 172.56a13.71 13.71 0 006.18 1.57c2.39 0 3.68-.92 3.68-2.38 0-1.29-1.07-2.08-4-2.93-3.92-1.13-6.76-3-6.76-6.68 0-3.85 3.44-6.69 8.84-6.69a15 15 0 016.38 1.22l-1.25 4.12a12.54 12.54 0 00-5.22-1.15c-2.29 0-3.39 1-3.39 2.09 0 1.43 1.42 2 4.45 3 4.25 1.36 6.32 3.33 6.32 6.73 0 3.57-2.78 6.92-9.47 6.92a15.9 15.9 0 01-6.93-1.54zM793.52 155.84v8.4H803v-8.4h5.24V178H803v-9.26h-9.51V178h-5.23v-22.16zM840.1 166.75c0 6.9-4.86 11.63-12.09 11.63s-11.58-4.86-11.58-11.25c0-6.81 4.88-11.68 11.94-11.68 7.28 0 11.73 4.82 11.73 11.3zM822 167c0 4.11 2.41 7.33 6.28 7.33s6.26-3.17 6.26-7.42c0-4-2.32-7.39-6.26-7.39S822 162.83 822 167zM848.27 156.12a49.42 49.42 0 017.51-.48c3.24 0 5.53.67 7 1.82a6.43 6.43 0 012.49 5.21 6.82 6.82 0 01-2.07 5.21c-1.82 1.66-4.48 2.43-7.79 2.43a11.88 11.88 0 01-2-.15V178h-5.18zm5.18 10a9 9 0 002 .16c2.82 0 4.69-1.28 4.69-3.58 0-2.08-1.6-3.18-4.3-3.18a13.39 13.39 0 00-2.37.16zM873.36 156.12a49.63 49.63 0 017.51-.48c3.25 0 5.54.67 7 1.82a6.4 6.4 0 012.5 5.21 6.82 6.82 0 01-2.07 5.21c-1.82 1.66-4.48 2.43-7.79 2.43a11.79 11.79 0 01-2-.15V178h-5.19zm5.19 10a9 9 0 002 .16c2.82 0 4.69-1.28 4.69-3.58 0-2.08-1.6-3.18-4.3-3.18a13.39 13.39 0 00-2.37.16zM903.7 155.84V178h-5.24v-22.16zM912.91 178v-22.16h6.46l5 7.94a58.39 58.39 0 014 8h.09a74.31 74.31 0 01-.39-8.92v-7H933V178h-5.68l-5.21-8.56a86.53 86.53 0 01-4.37-8.21h-.13c.17 3.17.2 6.21.2 9.55V178zM962.74 176.81a27.76 27.76 0 01-8.33 1.4c-4.55 0-7.8-1.11-10-3.23a10.48 10.48 0 01-3.22-7.76c0-7.14 5.63-11.61 13.73-11.61a17.68 17.68 0 017 1.2l-1.15 4.11a14.41 14.41 0 00-6-1.09c-4.59 0-8.05 2.46-8.05 7 0 4.32 3.16 7.25 8 7.25a9 9 0 003-.37v-4.43h-3.9v-4h9zM983.31 156.12a49.63 49.63 0 017.51-.48c3.24 0 5.53.67 7 1.82a6.43 6.43 0 012.5 5.21 6.86 6.86 0 01-2.07 5.21c-1.83 1.66-4.49 2.43-7.8 2.43a12 12 0 01-2-.15V178h-5.18zm5.18 10a9.1 9.1 0 002 .16c2.82 0 4.69-1.28 4.69-3.58 0-2.08-1.6-3.18-4.3-3.18a13.39 13.39 0 00-2.37.16zM1011.88 172.09l-1.76 5.89h-5.51l7.41-22.14h7l7.75 22.14H1021l-2-5.89zm6.3-3.86l-1.59-4.73c-.44-1.3-.86-2.77-1.24-4h-.07c-.35 1.25-.69 2.73-1.09 4l-1.49 4.73zM1034.59 156.14a48.93 48.93 0 017.3-.5c3.6 0 6 .56 7.59 1.79a5.62 5.62 0 012.14 4.66 5.83 5.83 0 01-4.07 5.41v.12c1.55.62 2.45 2.12 3 4 .77 2.53 1.46 5.46 1.91 6.33h-5.34a26.92 26.92 0 01-1.66-5.11c-.69-2.77-1.7-3.5-4-3.54h-1.77v8.7h-5.18zm5.18 9.47h2.36c2.68 0 4.31-1.18 4.31-3.1 0-2.08-1.6-3-4-3a13.28 13.28 0 00-2.66.18zM1065.05 160.12h-6.67v-4.28h18.67v4.28h-6.76V178h-5.24zM1084.48 178v-22.16h6.46l5 7.94a58.39 58.39 0 014 8h.09a74.31 74.31 0 01-.39-8.92v-7h4.87V178h-5.68l-5.21-8.56a86.53 86.53 0 01-4.37-8.21h-.13c.17 3.17.2 6.21.2 9.55V178zM1128.17 168.74H1119v5h10.25V178h-15.49v-22.16h15v4.22H1119v4.46h9.18zM1137.47 156.14a48.93 48.93 0 017.3-.5c3.6 0 6 .56 7.59 1.79a5.6 5.6 0 012.15 4.66 5.84 5.84 0 01-4.08 5.41v.12c1.55.62 2.45 2.12 3 4 .77 2.53 1.46 5.46 1.91 6.33h-5.33a26.92 26.92 0 01-1.66-5.11c-.7-2.77-1.7-3.5-4-3.54h-1.77v8.7h-5.18zm5.18 9.47h2.35c2.69 0 4.31-1.18 4.31-3.1 0-2.08-1.6-3-4-3a13.35 13.35 0 00-2.66.18z"
        transform="translate(-17.83 -3)"/>
  <path stroke="#fff" strokeWidth="8" fill="none" stroke-miterlimit="10"
        d="M334.65 24.23v151.1"/>
</svg>
